<svg xmlns="http://www.w3.org/2000/svg" viewBox="0 0 1400 512"><g transform="translate(0,20) scale(0.92)"><path d="M 345.3 234.0 A 92 92 0 1 1 278.0 166.7" fill="none" stroke="#F7F5F0" stroke-width="40" stroke-linecap="round"/>
<path d="M 116.6 325.9 A 156 156 0 1 1 186.1 395.4" fill="none" stroke="#F7F5F0" stroke-width="40" stroke-linecap="round"/>
<circle cx="256" cy="256" r="28" fill="#C9982A"/></g><g fill="#F7F5F0" transform="translate(510,275) scale(1.06)"><path transform="translate(0.0,0) scale(0.100000,-0.100000)" d="M210 165 203 319 570 700H716L411 376L339 297ZM94 0V700H224V0ZM582 0 314 319 400 414 734 0Z"/>
<path transform="translate(96.9,0) scale(0.100000,-0.100000)" d="M422 -10Q340 -10 271.0 17.0Q202 44 151.0 92.5Q100 141 72.0 206.5Q44 272 44 350Q44 428 72.0 493.5Q100 559 151.0 607.5Q202 656 271.0 683.0Q340 710 421 710Q503 710 571.5 683.0Q640 656 691.0 607.5Q742 559 770.0 493.5Q798 428 798 350Q798 272 770.0 206.0Q742 140 691.0 92.0Q640 44 571.5 17.0Q503 -10 422 -10ZM421 104Q474 104 519.0 122.0Q564 140 597.0 173.5Q630 207 648.5 251.5Q667 296 667 350Q667 404 648.5 448.5Q630 493 597.0 526.5Q564 560 519.0 578.0Q474 596 421 596Q368 596 323.5 578.0Q279 560 245.5 526.5Q212 493 193.5 448.5Q175 404 175 350Q175 297 193.5 252.0Q212 207 245.0 173.5Q278 140 323.0 122.0Q368 104 421 104Z"/>
<path transform="translate(205.1,0) scale(0.100000,-0.100000)" d="M311 -10Q229 -10 154.0 13.5Q79 37 35 74L80 175Q122 142 184.0 120.0Q246 98 311 98Q366 98 400.0 110.0Q434 122 450.0 142.5Q466 163 466 189Q466 221 443.0 240.5Q420 260 383.5 271.5Q347 283 302.5 293.0Q258 303 213.5 316.5Q169 330 132.5 351.5Q96 373 73.0 409.0Q50 445 50 501Q50 558 80.5 605.5Q111 653 173.5 681.5Q236 710 332 710Q395 710 457.0 694.0Q519 678 565 648L524 547Q477 575 427.0 588.5Q377 602 331 602Q277 602 243.5 589.0Q210 576 194.5 555.0Q179 534 179 507Q179 475 201.5 455.5Q224 436 260.5 425.0Q297 414 342.0 403.5Q387 393 431.5 380.0Q476 367 512.5 346.0Q549 325 571.5 289.0Q594 253 594 198Q594 142 563.5 94.5Q533 47 470.0 18.5Q407 -10 311 -10Z"/>
<path transform="translate(292.0,0) scale(0.100000,-0.100000)" d="M586 0V700H716V0ZM94 0V700H224V0ZM213 300V411H596V300Z"/>
<path transform="translate(397.0,0) scale(0.100000,-0.100000)" d="M-5 0 310 700H438L754 0H618L347 631H399L129 0ZM140 162 175 264H553L588 162Z"/>
<path transform="translate(495.9,0) scale(0.100000,-0.100000)" d="M421 -10Q339 -10 270.5 16.5Q202 43 151.0 91.5Q100 140 72.0 206.0Q44 272 44 350Q44 428 72.0 494.0Q100 560 151.5 608.5Q203 657 272.0 683.5Q341 710 423 710Q512 710 583.5 681.0Q655 652 704 596L622 516Q581 557 533.5 576.5Q486 596 429 596Q374 596 327.0 578.0Q280 560 246.0 527.0Q212 494 193.5 449.0Q175 404 175 350Q175 297 193.5 252.0Q212 207 246.0 173.5Q280 140 326.0 122.0Q372 104 428 104Q480 104 528.5 120.5Q577 137 621 176L695 79Q640 35 567.5 12.5Q495 -10 421 -10ZM695 79 572 96V358H695Z"/>
<path transform="translate(597.1,0) scale(0.100000,-0.100000)" d="M94 0V700H381Q521 700 600.5 634.0Q680 568 680 451Q680 374 644.0 318.5Q608 263 541.5 233.5Q475 204 382 204H166L224 263V0ZM552 0 375 254H514L692 0ZM224 249 166 311H376Q462 311 505.5 348.0Q549 385 549 451Q549 518 505.5 554.0Q462 590 376 590H166L224 654Z"/>
<path transform="translate(694.2,0) scale(0.100000,-0.100000)" d="M-5 0 310 700H438L754 0H618L347 631H399L129 0ZM140 162 175 264H553L588 162Z"/></g><text x="514" y="352" font-family="Montserrat SB" font-size="27" letter-spacing="9.5" fill="#9AA4B2">WEALTH CONTINUITY ORCHESTRATION</text></svg>